<?xml version="1.0" encoding="iso-8859-1"?>
<!-- Generator: Adobe Illustrator 19.1.0, SVG Export Plug-In . SVG Version: 6.00 Build 0)  -->
<svg version="1.1" id="Capa_1" xmlns="http://www.w3.org/2000/svg" xmlns:xlink="http://www.w3.org/1999/xlink" x="0px" y="0px"
	 viewBox="0 0 63.028 63.028" style="enable-background:new 0 0 63.028 63.028;" xml:space="preserve">
<g>
	<g>
		<g id="group-36svg">
			<path id="path-1_30_" d="M26.839,63.028c-2.284,0-4.356-1.241-5.408-3.24c-1.286-2.439-0.812-5.405,1.171-7.389l19.42-19.42
				c0.839-0.838,0.873-2.168,0.077-2.964l-18.84-18.84c-1.908-1.908-2.321-4.923-1.011-7.344c0.008-0.016,0.015-0.03,0.022-0.044
				c1.131-2.062,3.284-3.344,5.618-3.344c1.636,0,3.169,0.633,4.318,1.782l24.558,24.558c2.465,2.466,2.417,6.525-0.105,9.048
				L31.343,61.145C30.13,62.359,28.53,63.028,26.839,63.028z M24.916,5.203c-0.007,0.014-0.014,0.026-0.02,0.038
				c-0.706,1.285-0.511,2.818,0.485,3.813l18.839,18.84c1.966,1.965,1.932,5.199-0.077,7.207L24.723,54.52
				c-1.032,1.033-1.297,2.621-0.643,3.861c0.546,1.035,1.575,1.647,2.759,1.647c0.889,0,1.736-0.356,2.383-1.004L54.538,33.71
				c1.353-1.354,1.4-3.51,0.105-4.806L30.085,4.346c-0.582-0.582-1.363-0.903-2.197-0.903C26.66,3.443,25.524,4.117,24.916,5.203z"
				/>
			<path id="path-2_23_" d="M16.445,56.67c0,2.944-2.386,5.33-5.33,5.33h-1.34c-2.944,0-5.33-2.386-5.33-5.33V5.33
				C4.445,2.386,6.831,0,9.775,0h1.34c2.944,0,5.33,2.386,5.33,5.33V56.67z M13.445,5.33c0-1.287-1.043-2.33-2.33-2.33h-1.34
				c-1.287,0-2.33,1.043-2.33,2.33v51.34c0,1.287,1.043,2.33,2.33,2.33h1.34c1.287,0,2.33-1.043,2.33-2.33V5.33z"/>
		</g>
	</g>
	<g>
	</g>
	<g>
	</g>
	<g>
	</g>
	<g>
	</g>
	<g>
	</g>
	<g>
	</g>
	<g>
	</g>
	<g>
	</g>
	<g>
	</g>
	<g>
	</g>
	<g>
	</g>
	<g>
	</g>
	<g>
	</g>
	<g>
	</g>
	<g>
	</g>
</g>
<g>
</g>
<g>
</g>
<g>
</g>
<g>
</g>
<g>
</g>
<g>
</g>
<g>
</g>
<g>
</g>
<g>
</g>
<g>
</g>
<g>
</g>
<g>
</g>
<g>
</g>
<g>
</g>
<g>
</g>
</svg>
