<?xml version="1.0" encoding="iso-8859-1"?>
<!-- Generator: Adobe Illustrator 19.1.0, SVG Export Plug-In . SVG Version: 6.00 Build 0)  -->
<svg version="1.1" id="Capa_1" xmlns="http://www.w3.org/2000/svg" xmlns:xlink="http://www.w3.org/1999/xlink" x="0px" y="0px"
	 viewBox="0 0 63.028 63.028" style="enable-background:new 0 0 63.028 63.028;" xml:space="preserve">
<g>
	<g>
		<g id="group-37svg">
			<path id="path-1_31_" d="M36.98,63.028L36.98,63.028c-1.691,0-3.292-0.669-4.505-1.883L7.16,35.831
				c-2.523-2.523-2.571-6.582-0.106-9.048L31.613,2.225c1.148-1.149,2.681-1.782,4.317-1.782c2.334,0,4.487,1.282,5.618,3.344
				c0.009,0.017,0.018,0.033,0.026,0.05c1.306,2.42,0.891,5.432-1.015,7.338l-18.84,18.84c-0.796,0.796-0.761,2.126,0.077,2.964
				l19.42,19.42c1.984,1.984,2.457,4.95,1.177,7.38C41.335,61.787,39.263,63.028,36.98,63.028z M35.93,3.443
				c-0.834,0-1.614,0.321-2.196,0.903L9.175,28.904C7.88,30.2,7.927,32.356,9.281,33.71l25.315,25.314
				c0.648,0.648,1.494,1.004,2.384,1.004l0,0c1.185,0,2.213-0.612,2.753-1.636c0.659-1.251,0.394-2.839-0.638-3.872l-19.42-19.419
				c-2.009-2.008-2.043-5.242-0.077-7.207l18.84-18.84c0.995-0.995,1.19-2.528,0.484-3.813c-0.006-0.013-0.014-0.027-0.021-0.041
				C38.292,4.115,37.158,3.443,35.93,3.443z"/>
			<path id="path-2_24_" d="M57.792,56.67c0,2.944-2.386,5.33-5.33,5.33h-1.339c-2.944,0-5.331-2.386-5.331-5.33V5.33
				c0-2.944,2.387-5.33,5.331-5.33h1.339c2.944,0,5.33,2.386,5.33,5.33V56.67z M54.792,5.33c0-1.287-1.043-2.33-2.33-2.33h-1.339
				c-1.288,0-2.331,1.043-2.331,2.33v51.34c0,1.287,1.043,2.33,2.331,2.33h1.339c1.287,0,2.33-1.043,2.33-2.33V5.33z"/>
		</g>
	</g>
	<g>
	</g>
	<g>
	</g>
	<g>
	</g>
	<g>
	</g>
	<g>
	</g>
	<g>
	</g>
	<g>
	</g>
	<g>
	</g>
	<g>
	</g>
	<g>
	</g>
	<g>
	</g>
	<g>
	</g>
	<g>
	</g>
	<g>
	</g>
	<g>
	</g>
</g>
<g>
</g>
<g>
</g>
<g>
</g>
<g>
</g>
<g>
</g>
<g>
</g>
<g>
</g>
<g>
</g>
<g>
</g>
<g>
</g>
<g>
</g>
<g>
</g>
<g>
</g>
<g>
</g>
<g>
</g>
</svg>
